<?xml version="1.0" encoding="utf-8"?>
<!-- Generator: Adobe Illustrator 16.0.0, SVG Export Plug-In . SVG Version: 6.00 Build 0)  -->
<!DOCTYPE svg PUBLIC "-//W3C//DTD SVG 1.1//EN" "http://www.w3.org/Graphics/SVG/1.1/DTD/svg11.dtd">
<svg version="1.1" id="Layer_1" xmlns="http://www.w3.org/2000/svg" xmlns:xlink="http://www.w3.org/1999/xlink" x="0px" y="0px"
	 width="800px" height="600px" viewBox="0 0 800 600" enable-background="new 0 0 800 600" xml:space="preserve">
<path fill="none" d="M279.197,274.232L279.197,274.232z M277.833,274.377c-0.526-0.02-1.046-0.127-1.536-0.319
	c0.495,0.248,1.041,0.376,1.594,0.376h0.406L277.833,274.377z M277.833,274.377c-0.526-0.02-1.046-0.127-1.536-0.319
	c0.495,0.248,1.041,0.376,1.594,0.376h0.406L277.833,274.377z"/>
<radialGradient id="SVGID_1_" cx="-159.2617" cy="416.5332" r="2.7463" gradientTransform="matrix(91.2464 0 0 -91.2464 15039.752 38305.2734)" gradientUnits="userSpaceOnUse">
	<stop  offset="0.06" style="stop-color:#FFFFFF"/>
	<stop  offset="0.08" style="stop-color:#CBFFFF"/>
	<stop  offset="0.1" style="stop-color:#96FFFF"/>
	<stop  offset="0.12" style="stop-color:#68FFFF"/>
	<stop  offset="0.14" style="stop-color:#43FFFF"/>
	<stop  offset="0.17" style="stop-color:#25FFFF"/>
	<stop  offset="0.19" style="stop-color:#11FFFF"/>
	<stop  offset="0.21" style="stop-color:#04FFFF"/>
	<stop  offset="0.23" style="stop-color:#00FFFF"/>
	<stop  offset="1" style="stop-color:#0000FF;stop-opacity:0"/>
</radialGradient>
<path display="none" fill="url(#SVGID_1_)" d="M510.754,296.753c-29.832-73.187-113.344-108.333-186.531-78.501
	c-26.501,10.802-49.155,29.302-65.035,53.11c-0.294,0.434-0.37,0.981-0.203,1.479c0.168,0.496,0.552,0.89,1.043,1.072l3.739,1.246
	c0.885,0.29,1.854-0.041,2.377-0.812c42.064-61.917,126.358-78.012,188.276-35.947c21.586,14.665,38.479,35.249,48.651,59.281
	c0.302,0.729,1.009,1.207,1.797,1.218h4.436c0.864,0,1.564-0.701,1.564-1.565c0.027-0.192,0.027-0.388,0-0.58H510.754
	L510.754,296.753z M264.377,274.116c-0.104,0.027-0.214,0.027-0.319,0h0.29l0,0H264.377z"/>
<path display="none" fill="#FFFFFF" d="M715.942,329.942c0,0-0.175,1.563-0.437,3.304c-0.553,3.809-4.069,6.459-7.884,5.941h-16.956
	l-1.913,15.159h-13.508l3.015-24.404H715.942L715.942,329.942z M636.261,329.942h29.683c4.23,0,9.623,1.825,8.551,9.478
	c-0.285,3.139-0.818,6.25-1.595,9.305c-2.262,5.393-8.985,5.565-9.942,5.623h-29.884l1.334-10.579h26.289l0.58-4.579h-18.29
	c-4.579,0-7.826-2.87-6.841-9.246L636.261,329.942L636.261,329.942z M633.536,329.942l-1.159,9.245h-22.638l-0.58,4.58h22.638
	l-1.362,10.579h-36.23l3.102-24.404H633.536z M718.695,329.942h13.508l-3.072,24.404h-13.536L718.695,329.942z M744.348,329.942
	h13.509l-3.073,24.404H741.16l3.072-24.404H744.348z M599.42,314.493h36.146l-1.422,11.188h-36.317l1.42-11.188H599.42z
	 M707.826,314.493c7.536,0,9.564,4.317,8.956,9.101c0,0.841-0.231,1.826-0.262,2.06h-79.825c0,0,0.203-1.536,0.405-3.275
	c0.552-4.58,4.349-7.682,10.116-7.884h60.436L707.826,314.493L707.826,314.493z M750.146,314.493c4.666,0,9.508,2.145,8.551,9.478
	c-0.174,1.306-0.202,1.711-0.202,1.711h-39.392l1.42-11.188L750.146,314.493L750.146,314.493z"/>
<path display="none" fill="#F9B300" d="M788.985,329.392l1.274-9.941h-10.754l-1.246,9.941h-10.145l-1.218,9.885h10.087l-1.218,10
	h10.726l1.304-10.116h10.116l1.246-9.884L788.985,329.392z"/>
<path display="none" fill="none" d="M0,305.797h142.58v49.913H0V305.797z"/>
<path display="none" fill="#1CE783" d="M87.391,355.71h11.333v-49.913H87.362v49.913H87.391z M67.42,341.479
	c0.051,1.677-1.227,3.095-2.898,3.218h-6.725c-1.722-0.063-3.076-1.494-3.043-3.218v-20.115H43.478v21.102
	c0,8.695,5.218,13.188,12.87,13.188H67.45c7.073,0,11.362-5.421,11.362-13.188v-21.102h-11.45
	C67.362,321.362,67.42,340.841,67.42,341.479z M131.188,321.362v20.115c0.036,1.671-1.234,3.08-2.898,3.218h-6.551
	c-1.665-0.138-2.935-1.547-2.898-3.218v-20.115h-11.594v21.102c0,8.695,5.217,13.188,12.898,13.188h11.072
	c7.073,0,11.362-5.421,11.362-13.188v-21.102H131.188z M22.348,321.362h-7.159c-1.312-0.069-2.623,0.169-3.826,0.694v-16.261H0
	v49.855h11.304v-20.06c-0.036-1.67,1.234-3.079,2.899-3.217h6.725c1.665,0.138,2.935,1.547,2.898,3.217v20.116h11.362v-21.739
	c0-9.102-5.797-12.607-12.87-12.607L22.348,321.362L22.348,321.362z"/>
<g>
	<g>
		<path fill="#FFFFFF" d="M280.148,286.652h21.947l-34.327,101.57h-20.118l-34.046-101.57h22.65l21.665,76.957h0.281
			L280.148,286.652z"/>
		<path fill="#FFFFFF" d="M334.169,304.052h-19.696v-18.39h19.696V304.052L334.169,304.052z M334.169,312.964v75.258h-19.696
			v-75.258H334.169z"/>
		<path fill="#FFFFFF" d="M420.69,388.222h-19.696V342.53c0-5.519-0.28-14.854-12.803-14.854c-8.722,0-15.475,5.94-15.475,17.399
			v43.146h-19.696v-75.258h18.852v11.034h0.281c2.673-4.527,8.301-13.015,22.51-13.015c14.631,0,26.026,8.629,26.026,25.18V388.222z
			"/>
		<path fill="#FFFFFF" d="M461.064,312.964h12.239v14.146h-12.239v40.883c0,4.385,0.142,6.083,8.159,6.083
			c1.266,0,2.674-0.143,4.08-0.283v14.995c-3.095,0.142-6.19,0.283-9.284,0.283h-2.533c-17.021,0-20.116-6.509-20.116-16.269V327.11
			h-10.13v-14.146h10.13v-20.371h19.694V312.964z"/>
		<path fill="#FFFFFF" d="M546.459,373.509c0,8.912,1.969,10.895,4.359,11.741v2.972h-21.243c-1.126-3.537-1.406-4.668-1.828-8.912
			c-4.502,4.668-10.832,10.894-24.197,10.894c-11.255,0-22.792-6.366-22.792-21.927c0-14.714,9.286-22.21,21.807-24.051
			l17.728-2.687c3.095-0.424,6.894-1.698,6.894-5.942c0-8.346-7.879-8.77-12.942-8.77c-9.848,0-11.535,6.083-12.1,10.468h-18.992
			c2.25-23.058,18.148-26.312,33.483-26.312c10.551,0,29.825,3.254,29.825,21.783L546.459,373.509L546.459,373.509z
			 M527.185,351.583c-1.97,1.556-5.205,2.829-13.365,4.103c-7.314,1.272-13.363,3.112-13.363,11.316
			c0,6.932,5.345,9.054,9.144,9.054c8.724,0,17.586-5.658,17.586-14.854L527.185,351.583L527.185,351.583z"/>
	</g>
	<path fill="none" d="M277.74,275.162h-0.034 M277.475,275.195c-0.1,0-0.198-0.033-0.298-0.033
		C277.273,275.189,277.374,275.2,277.475,275.195L277.475,275.195z M277.475,275.195c-0.1,0-0.198-0.033-0.298-0.033
		C277.273,275.189,277.374,275.2,277.475,275.195L277.475,275.195z"/>
	
		<radialGradient id="SVGID_2_" cx="497.5068" cy="315.7236" r="217.0533" gradientTransform="matrix(1.1572 0 0 -1.1636 -52.6938 667.6695)" gradientUnits="userSpaceOnUse">
		<stop  offset="0.01" style="stop-color:#FEFF2A"/>
		<stop  offset="0.03" style="stop-color:#FEFF2A"/>
		<stop  offset="0.06" style="stop-color:#FEFF2A"/>
		<stop  offset="0.08" style="stop-color:#FEFF2A"/>
		<stop  offset="0.11" style="stop-color:#FEFF28"/>
		<stop  offset="0.14" style="stop-color:#FEFF25"/>
		<stop  offset="0.16" style="stop-color:#FEFF28"/>
		<stop  offset="0.19" style="stop-color:#FEFF17"/>
		<stop  offset="0.22" style="stop-color:#FFE100"/>
		<stop  offset="1" style="stop-color:#F0FF15;stop-opacity:0"/>
	</radialGradient>
	<path fill="url(#SVGID_2_)" d="M527.223,298.284c-30.166-74.603-114.766-110.491-188.959-80.158
		c-26.936,11.012-49.957,29.912-66.075,54.245c-0.294,0.44-0.368,0.992-0.199,1.494c0.158,0.508,0.553,0.904,1.057,1.063
		l3.767,1.295c0.215,0.064,0.438,0.098,0.661,0.1c0.698-0.009,1.349-0.355,1.751-0.93c25.555-37.868,68.113-60.54,113.624-60.532
		c55.209,0.01,105.057,33.228,126.576,84.352c0.305,0.74,1.021,1.225,1.816,1.229h4.493c0.521,0.006,1.008-0.259,1.288-0.698
		C527.35,299.332,527.426,298.772,527.223,298.284z M277.475,275.195c-0.103-0.007-0.203-0.028-0.298-0.066
		C277.271,275.167,277.372,275.188,277.475,275.195L277.475,275.195z M520.317,299.845c0.092,0.068,0.192,0.125,0.297,0.167
		C520.517,299.945,520.417,299.912,520.317,299.845z"/>
</g>
<polyline display="none" fill-rule="evenodd" clip-rule="evenodd" fill="#FFFFFF" points="184.531,223.072 184.531,415.828 
	-8.225,415.828 -8.225,223.072 "/>
<polygon fill="#FFFFFF" points="100.201,314.641 91.785,314.552 81.078,343.915 70.191,314.552 61.954,314.729 53.939,356.895 
	62.333,356.983 67.32,330.558 77.271,356.895 84.885,356.983 94.457,330.558 99.622,356.895 108.037,356.983 100.201,314.641 
	100.201,314.641 "/>
<image display="none" overflow="visible" width="136" height="107" xlink:href="8E520338.png"  transform="matrix(0.48 0 0 -0.48 115.2295 330.6592)">
</image>
<polyline display="none" fill="none" points="177.715,280.051 177.715,329.262 116.351,329.262 116.351,280.051 "/>
<image display="none" overflow="visible" width="136" height="107" xlink:href="8E520339.png"  transform="matrix(0.48 0 0 -0.48 115.2295 330.6592)">
</image>
<polyline display="none" fill="none" points="177.715,280.051 177.715,329.262 116.351,329.262 116.351,280.051 "/>
<image display="none" overflow="visible" width="136" height="107" xlink:href="8E52033A.png"  transform="matrix(0.48 0 0 -0.48 115.2295 330.6592)">
</image>
<polyline display="none" fill="none" points="177.715,280.051 177.715,329.262 116.351,329.262 116.351,280.051 "/>
<image display="none" overflow="visible" width="136" height="107" xlink:href="8E52033F.png"  transform="matrix(0.48 0 0 -0.48 115.2295 330.6592)">
</image>
<polyline fill="none" points="183.896,280.051 183.896,329.262 122.532,329.262 122.532,280.051 "/>
<path fill="#FF0013" d="M169.337,280.073c-9.8,0.022-9.765,15.599-9.748,23.097c2.688-9.835,4.508-17.029,9.761-17.041
	c3.378-0.008,4.398,8.1,3.231,17.086c-1.168,8.985-3.563,16.488-5.306,17.013c-3.262,2.605-13.458-3.112-18.128-5.601
	c-11.839-7.472-9.96-12.398-9.518-13.588c0.443-1.189,1.772-5.326,14.528-2.756l0,0c0,0-21.409-13.166-26.295-6.92
	c-5.331,6.249,11.054,21.227,13.806,23.559s15.118,12.883,27.407,14.071c7.925,0.269,11.787-7.496,12.594-11.917
	C183.896,300.628,179.135,280.051,169.337,280.073"/>
<path fill="#FFFFFF" d="M136.889,314.552l-8.971,0.178l-17.988,42.165l9.194,0.089l3.717-8.638l19.391-0.022l3.45,8.571l8.995-0.09
	L136.889,314.552L136.889,314.552L136.889,314.552z M138.536,340.331l-12.333-0.423l6.1-13.914L138.536,340.331L138.536,340.331
	L138.536,340.331z"/>
<path fill="#FFFFFF" d="M31.589,312.059l-5.21,0.445c-2.114,0.334-4.118,0.935-6.055,1.758c-2.872,1.247-5.365,3.027-7.48,5.365
	c-3.361,3.718-5.41,8.081-6.167,13.046c-0.423,2.761-0.222,5.61,0.579,8.549c0.958,3.45,2.538,6.545,4.787,9.328
	c2.315,2.872,5.209,4.964,8.66,6.277c4.208,1.604,8.459,2.249,12.756,1.915c3.763-0.29,7.414-1.358,10.953-3.184
	c2.783-1.425,5.076-3.406,6.856-5.967c1.559-2.271,2.628-4.741,3.185-7.413c0.512-2.382,0.579-4.742,0.245-7.035H31.388v7.814
	l13.558,0.312l-0.045,0.067c-1.313,3.05-3.562,5.164-6.7,6.3c-2.694,0.957-5.477,1.27-8.349,0.936
	c-3.228-0.379-6.167-1.515-8.815-3.406c-2.649-1.915-4.408-4.453-5.232-7.637c-0.958-3.606-0.668-7.079,0.824-10.396
	c1.335-2.983,3.451-5.21,6.345-6.701c2.404-1.225,4.964-1.871,7.658-1.938c3.54-0.2,6.879,0.468,10.063,2.026
	c1.825,0.891,3.406,2.114,4.763,3.65l6.189-5.721c-1.915-2.271-4.208-4.052-6.856-5.32c-3.095-1.492-6.301-2.472-9.595-2.895
	L31.589,312.059L31.589,312.059L31.589,312.059z"/>
<g>
	<path fill="#FFFFFF" d="M693.082,329.503c17.625-2.415,31.143-16.267,31.143-33c0-18.437-16.408-33.375-36.643-33.375
		c-20.232,0-36.64,14.939-36.64,33.375c0,16.931,13.849,30.921,31.791,33.08l0.027,5.938c-21.535-2.185-38.279-18.82-38.279-39.019
		c0-21.684,19.298-39.264,43.101-39.264c23.807,0,43.104,17.581,43.104,39.264c0,19.983-16.396,36.487-37.601,38.945
		L693.082,329.503L693.082,329.503z"/>
	<path fill="#FFFFFF" d="M693.109,317.126c10.172-2.24,17.73-10.584,17.73-20.542c0-11.667-10.386-21.13-23.194-21.13
		c-12.811,0-23.194,9.464-23.194,21.13c0,10.138,7.839,18.608,18.297,20.656l0.004,5.893c-13.984-2.149-24.633-13.23-24.633-26.573
		c0-14.885,13.244-26.955,29.579-26.955c16.346,0,29.593,12.069,29.593,26.955c0,13.206-10.424,24.19-24.182,26.5V317.126
		L693.109,317.126z"/>
	<path fill="#FFFFFF" d="M693.131,305.291c3.267-1.674,5.477-4.861,5.477-8.515c0-5.385-4.793-9.754-10.714-9.754
		c-5.909,0-10.703,4.369-10.703,9.754c0,3.662,2.222,6.854,5.498,8.524l0.013,5.937c-6.676-1.988-11.508-7.717-11.508-14.46
		c0-8.404,7.482-15.213,16.7-15.213c9.232,0,16.706,6.809,16.706,15.213c0,6.76-4.687,12.438-11.397,14.413L693.131,305.291
		L693.131,305.291z"/>
	<polygon fill="#FFFFFF" points="684.805,296.539 684.961,338.644 690.902,338.644 690.902,296.539 684.805,296.539 	"/>
	<path fill="#FFFFFF" d="M586.537,339.66c0.417-0.584,0.895-1.234,0.895-1.753c0-0.846-2.771-1.139-5.755-1.527v-0.553h16.066
		l14.069,21.863h-10.99l-3.76-5.886h-14.756l-3.7,5.886h-4.256L586.537,339.66L586.537,339.66z M584.268,349.177h11.447
		l-5.613-9.074L584.268,349.177L584.268,349.177z"/>
	<path fill="#FFFFFF" d="M612.82,339.53c0-2.501-1.413-2.598-6.326-3.15v-0.553h20.525c8.028,0,16.354,0.328,16.354,5.361
		c0,4.28-5.856,4.642-7.847,4.84v0.033c4.644-0.033,8.954,1.766,8.954,5.794c0,5.882-10.169,5.835-17.867,5.835H612.82V339.53
		L612.82,339.53z M622.07,345.187h2.437c2.782,0,8.547-0.169,8.547-3.686c0-2.943-3.378-3.716-7.356-3.716
		c-3.428,0-3.627,0.229-3.627,2.145V345.187L622.07,345.187z M622.07,353.687c0,2.079,0,2.245,4.125,2.245
		c4.325,0,8.549-0.794,8.549-3.887c0-4.188-7.057-4.241-10.237-4.241h-2.437V353.687L622.07,353.687z"/>
	<path fill="#FFFFFF" d="M734.922,339.53c0-2.501-1.381-2.598-6.203-3.15v-0.553h20.134c7.876,0,16.044,0.328,16.044,5.361
		c0,4.28-5.746,4.642-7.698,4.84v0.033c4.553-0.033,8.779,1.766,8.779,5.794c0,5.882-9.972,5.835-17.524,5.835h-13.531V339.53
		L734.922,339.53z M743.996,345.187h2.39c2.73,0,8.387-0.167,8.387-3.587c0-2.865-3.316-3.616-7.215-3.616
		c-3.367,0-3.562,0.223-3.562,2.086V345.187L743.996,345.187z M743.996,353.544c0,2.03,0,2.19,4.047,2.19
		c4.24,0,8.387-0.775,8.387-3.792c0-4.086-6.924-4.139-10.044-4.139h-2.39V353.544L743.996,353.544z"/>
	<path fill="#FFFFFF" d="M671.249,341.963c-2.149-3.204-6.608-5.047-11.115-5.047c-4.637,0-6.439,1.16-6.561,3.104
		c-0.254,4.146,20.752,3.108,20.155,11.356c-0.363,5.039-7.898,6.473-16.206,6.473c-4.509,0-10.606-0.618-11.701-0.745v-6.116
		c2.505,2.234,7.897,4.843,12.272,4.951c4.335,0.105,6.578-0.491,6.578-3.203c0-4.514-19.825-2.312-19.212-11.211
		c0.246-3.56,5.133-6.454,15.03-6.163c4.184,0.121,10.736,0.68,11.094,1.067L671.249,341.963L671.249,341.963z"/>
	<path fill="#FFFFFF" d="M732.771,349.845c-2.563,2.335-5.766,5.835-13.131,5.835c-8.674,0-10.58-4.643-10.58-9.255
		c0-4.973,3.189-8.313,7.059-8.541c4.961-0.292,6.636,1.606,8.046,4.362h8.349c-1.505-4.945-7.127-6.634-15.965-6.775
		c-13.241-0.211-17.573,4.644-17.573,10.556c0,6.6,3.2,12.422,18.974,12.348c5.442-0.023,8.81-0.938,13.105-1.822L732.771,349.845
		L732.771,349.845z"/>
	<path fill="#FFFFFF" d="M795.95,335.827c0-0.003,0.006-0.005,0.006-0.005h-10.247l0.01,0.376c0,0,5.968,0.01,6.28,2.333v11.941
		l-17.076-14.646h-12.494v0.553c5.033,0.454,5.689,0.534,5.689,3.131l-0.131,18.121l3.848,0.026v-14l15.937,14.032H796v-21.863
		H795.95L795.95,335.827z"/>
	<path fill="#FFFFFF" d="M691.189,345.384c0,1.574-1.4,2.849-3.126,2.849c-1.728,0-3.127-1.274-3.127-2.849s1.399-2.849,3.127-2.849
		C689.789,342.535,691.189,343.81,691.189,345.384L691.189,345.384z"/>
</g>
</svg>
