<?xml version="1.0" encoding="utf-8"?>
<!-- Generator: Adobe Illustrator 16.0.0, SVG Export Plug-In . SVG Version: 6.00 Build 0)  -->
<!DOCTYPE svg PUBLIC "-//W3C//DTD SVG 1.1//EN" "http://www.w3.org/Graphics/SVG/1.1/DTD/svg11.dtd">
<svg version="1.1" xmlns="http://www.w3.org/2000/svg" xmlns:xlink="http://www.w3.org/1999/xlink" x="0px" y="0px" width="800px"
	 height="600px" viewBox="0 0 800 600" enable-background="new 0 0 800 600" xml:space="preserve">
<g id="Layer_2">
	<g>
		<path fill="#FFFFFF" d="M160.394,266.493h50.856l-79.545,234.071H85.087L6.194,266.493h52.487l50.205,177.346h0.652
			L160.394,266.493z"/>
		<path fill="#FFFFFF" d="M285.574,306.591h-45.641v-42.38h45.641V306.591z M285.574,327.129v173.435h-45.641V327.129H285.574z"/>
		<path fill="#FFFFFF" d="M486.065,500.563h-45.641V395.265c0-12.715-0.651-34.23-29.666-34.23c-20.212,0-35.86,13.691-35.86,40.098
			v99.432h-45.641V327.129h43.685v25.429h0.651c6.194-10.432,19.234-29.992,52.161-29.992c33.904,0,60.311,19.886,60.311,58.028
			V500.563z"/>
		<path fill="#FFFFFF" d="M579.624,327.129h28.362v32.601h-28.362v94.216c0,10.105,0.326,14.018,18.908,14.018
			c2.934,0,6.194-0.326,9.454-0.651v34.556c-7.172,0.326-14.345,0.652-21.517,0.652h-5.868c-39.446,0-46.618-14.996-46.618-37.49
			v-105.3h-23.473v-32.601h23.473v-46.944h45.641V327.129z"/>
		<path fill="#FFFFFF" d="M777.505,466.659c0,20.538,4.563,25.103,10.105,27.059v6.846h-49.227
			c-2.607-8.15-3.26-10.758-4.237-20.538c-10.433,10.758-25.103,25.103-56.073,25.103c-26.08,0-52.813-14.671-52.813-50.531
			c0-33.904,21.517-51.183,50.53-55.421l41.077-6.193c7.172-0.979,15.974-3.912,15.974-13.692c0-19.234-18.256-20.212-29.992-20.212
			c-22.82,0-26.732,14.018-28.036,24.124h-44.011c5.216-53.139,42.055-60.637,77.589-60.637c24.45,0,69.113,7.498,69.113,50.204
			V466.659z M732.842,416.129c-4.563,3.586-12.062,6.52-30.97,9.454c-16.952,2.934-30.971,7.172-30.971,26.08
			c0,15.974,12.388,20.864,21.19,20.864c20.212,0,40.75-13.04,40.75-34.23V416.129z"/>
	</g>
</g>
<g id="Layer_1">
	<title>Disney+ Brand Logo</title>
	<path fill="none" d="M154.809,240.013h-0.077 M154.197,240.09c-0.23,0-0.459-0.077-0.689-0.077
		C153.731,240.077,153.964,240.103,154.197,240.09L154.197,240.09z M154.197,240.09c-0.23,0-0.459-0.077-0.689-0.077
		C153.731,240.077,153.964,240.103,154.197,240.09L154.197,240.09z"/>
	
		<radialGradient id="SVGID_1_" cx="971.7432" cy="314.9912" r="760.12" gradientTransform="matrix(0.7656 0 0 0.7656 -20.8428 56.7303)" gradientUnits="userSpaceOnUse">
		<stop  offset="0.01" style="stop-color:#FEFF2A"/>
		<stop  offset="0.03" style="stop-color:#FEFF2A"/>
		<stop  offset="0.06" style="stop-color:#FEFF2A"/>
		<stop  offset="0.08" style="stop-color:#FEFF2A"/>
		<stop  offset="0.11" style="stop-color:#FEFF28"/>
		<stop  offset="0.14" style="stop-color:#FEFF25"/>
		<stop  offset="0.16" style="stop-color:#FEFF28"/>
		<stop  offset="0.19" style="stop-color:#FEFF17"/>
		<stop  offset="0.22" style="stop-color:#FFE100"/>
		<stop  offset="1" style="stop-color:#F0FF15;stop-opacity:0"/>
	</radialGradient>
	<path fill="url(#SVGID_1_)" d="M732.932,293.301C663.027,121.375,466.986,38.669,295.06,108.573
		c-62.416,25.378-115.762,68.932-153.113,125.009c-0.682,1.014-0.852,2.288-0.459,3.445c0.366,1.169,1.281,2.084,2.45,2.45
		l8.728,2.986c0.498,0.146,1.013,0.223,1.531,0.229c1.618-0.022,3.127-0.82,4.058-2.144
		c59.219-87.267,157.835-139.515,263.298-139.497c127.934,0.022,243.443,76.576,293.31,194.392c0.708,1.705,2.366,2.82,4.211,2.833
		h10.413c1.205,0.013,2.333-0.594,2.985-1.608C733.226,295.713,733.401,294.424,732.932,293.301z M154.197,240.09
		c-0.236-0.014-0.469-0.066-0.689-0.153C153.728,240.024,153.96,240.076,154.197,240.09L154.197,240.09z M716.93,296.899
		c0.213,0.156,0.444,0.285,0.689,0.383C717.39,297.129,717.159,297.052,716.93,296.899z"/>
</g>
</svg>
